<mxfile type="github" version="12.6.6" host="www.draw.io" modified="2020-02-09T17:27:04.210Z" agent="Mozilla/5.0 (Windows NT 10.0; Win64; x64) AppleWebKit/537.36 (KHTML, like Gecko) Chrome/64.0.3282.140 Safari/537.36 Edge/18.17763" etag="sJVBa4bfFtIVoyWjG56r">
  <diagram id="9HjB6JmcAYeKsk_iC3qo" name="Page-1">
    <mxGraphModel grid="1" dx="2591" dy="792" gridSize="10" guides="1" tooltips="1" connect="1" arrows="1" fold="1" page="1" pageScale="1" pageWidth="1169" pageHeight="827" math="0" shadow="0">
      <root>
        <mxCell id="0"/>
        <mxCell id="1" parent="0"/>
        <mxCell id="vP9WscsPbkwAnYPu6dyH-77" value="f" parent="1" style="endArrow=none;html=1;" edge="1">
          <mxGeometry as="geometry" height="50" width="50" relative="1">
            <mxPoint as="sourcePoint" y="500" x="10"/>
            <mxPoint as="targetPoint" y="500" x="80"/>
            <Array as="points">
              <mxPoint y="500" x="130"/>
              <mxPoint y="500" x="160"/>
              <mxPoint y="500" x="240"/>
              <mxPoint y="500" x="320"/>
              <mxPoint y="500" x="400"/>
              <mxPoint y="500" x="480"/>
              <mxPoint y="500" x="560"/>
              <mxPoint y="500" x="640"/>
              <mxPoint y="500" x="720"/>
              <mxPoint y="500" x="800"/>
              <mxPoint y="500" x="880"/>
              <mxPoint y="500" x="960"/>
              <mxPoint y="500" x="1040"/>
              <mxPoint y="500" x="1120"/>
              <mxPoint y="500" x="1140"/>
              <mxPoint y="500" x="1170"/>
            </Array>
          </mxGeometry>
        </mxCell>
        <mxCell id="vP9WscsPbkwAnYPu6dyH-78" value="February" parent="1" style="text;html=1;align=center;verticalAlign=middle;resizable=0;points=[];autosize=1;" vertex="1">
          <mxGeometry as="geometry" height="20" width="60" y="510" x="-9"/>
        </mxCell>
        <mxCell id="vP9WscsPbkwAnYPu6dyH-79" value="March" parent="1" style="text;html=1;align=center;verticalAlign=middle;resizable=0;points=[];autosize=1;" vertex="1">
          <mxGeometry as="geometry" height="20" width="50" y="510" x="106"/>
        </mxCell>
        <mxCell id="vP9WscsPbkwAnYPu6dyH-81" value="April" parent="1" style="text;html=1;align=center;verticalAlign=middle;resizable=0;points=[];autosize=1;" vertex="1">
          <mxGeometry as="geometry" height="20" width="40" y="510" x="213"/>
        </mxCell>
        <mxCell id="vP9WscsPbkwAnYPu6dyH-83" value="May" parent="1" style="text;html=1;align=center;verticalAlign=middle;resizable=0;points=[];autosize=1;" vertex="1">
          <mxGeometry as="geometry" height="20" width="40" y="510" x="316"/>
        </mxCell>
        <mxCell id="vP9WscsPbkwAnYPu6dyH-85" value="June" parent="1" style="text;html=1;align=center;verticalAlign=middle;resizable=0;points=[];autosize=1;" vertex="1">
          <mxGeometry as="geometry" height="20" width="40" y="510" x="414"/>
        </mxCell>
        <mxCell id="vP9WscsPbkwAnYPu6dyH-87" value="July" parent="1" style="text;html=1;align=center;verticalAlign=middle;resizable=0;points=[];autosize=1;" vertex="1">
          <mxGeometry as="geometry" height="20" width="40" y="511" x="508"/>
        </mxCell>
        <mxCell id="vP9WscsPbkwAnYPu6dyH-89" value="August" parent="1" style="text;html=1;align=center;verticalAlign=middle;resizable=0;points=[];autosize=1;" vertex="1">
          <mxGeometry as="geometry" height="20" width="50" y="510" x="607"/>
        </mxCell>
        <mxCell id="vP9WscsPbkwAnYPu6dyH-91" value="September" parent="1" style="text;html=1;align=center;verticalAlign=middle;resizable=0;points=[];autosize=1;" vertex="1">
          <mxGeometry as="geometry" height="20" width="70" y="510" x="717"/>
        </mxCell>
        <mxCell id="vP9WscsPbkwAnYPu6dyH-93" value="October" parent="1" style="text;html=1;align=center;verticalAlign=middle;resizable=0;points=[];autosize=1;" vertex="1">
          <mxGeometry as="geometry" height="20" width="60" y="510" x="841"/>
        </mxCell>
        <mxCell id="vP9WscsPbkwAnYPu6dyH-98" value="November" parent="1" style="text;html=1;align=center;verticalAlign=middle;resizable=0;points=[];autosize=1;" vertex="1">
          <mxGeometry as="geometry" height="20" width="70" y="512" x="958"/>
        </mxCell>
        <mxCell id="wdctDN5jrHUbDZ-jReNc-1" value="December" parent="1" style="text;html=1;align=center;verticalAlign=middle;resizable=0;points=[];autosize=1;" vertex="1">
          <mxGeometry as="geometry" height="20" width="70" y="512" x="1083"/>
        </mxCell>
        <mxCell id="wdctDN5jrHUbDZ-jReNc-6" value="" parent="1" style="edgeStyle=orthogonalEdgeStyle;shape=flexArrow;rounded=0;orthogonalLoop=1;jettySize=auto;html=1;fillColor=#1ba1e2;strokeColor=#006EAF;" edge="1">
          <mxGeometry as="geometry" relative="1">
            <mxPoint as="sourcePoint" y="520" x="51"/>
            <mxPoint as="targetPoint" y="520" x="111"/>
          </mxGeometry>
        </mxCell>
        <mxCell id="wdctDN5jrHUbDZ-jReNc-7" value="" parent="1" style="edgeStyle=orthogonalEdgeStyle;shape=flexArrow;rounded=0;orthogonalLoop=1;jettySize=auto;html=1;fillColor=#1ba1e2;strokeColor=#006EAF;" edge="1">
          <mxGeometry as="geometry" relative="1">
            <mxPoint as="sourcePoint" y="520" x="257"/>
            <mxPoint as="targetPoint" y="520" x="317"/>
          </mxGeometry>
        </mxCell>
        <mxCell id="wdctDN5jrHUbDZ-jReNc-8" value="" parent="1" style="edgeStyle=orthogonalEdgeStyle;shape=flexArrow;rounded=0;orthogonalLoop=1;jettySize=auto;html=1;fillColor=#1ba1e2;strokeColor=#006EAF;" edge="1">
          <mxGeometry as="geometry" relative="1">
            <mxPoint as="sourcePoint" y="520" x="153"/>
            <mxPoint as="targetPoint" y="520" x="213"/>
          </mxGeometry>
        </mxCell>
        <mxCell id="wdctDN5jrHUbDZ-jReNc-9" value="" parent="1" style="edgeStyle=orthogonalEdgeStyle;shape=flexArrow;rounded=0;orthogonalLoop=1;jettySize=auto;html=1;fillColor=#1ba1e2;strokeColor=#006EAF;" edge="1">
          <mxGeometry as="geometry" relative="1">
            <mxPoint as="sourcePoint" y="520" x="354"/>
            <mxPoint as="targetPoint" y="520" x="414"/>
          </mxGeometry>
        </mxCell>
        <mxCell id="wdctDN5jrHUbDZ-jReNc-10" value="" parent="1" style="edgeStyle=orthogonalEdgeStyle;shape=flexArrow;rounded=0;orthogonalLoop=1;jettySize=auto;html=1;fillColor=#1ba1e2;strokeColor=#006EAF;" edge="1">
          <mxGeometry as="geometry" relative="1">
            <mxPoint as="sourcePoint" y="521" x="452"/>
            <mxPoint as="targetPoint" y="521" x="512"/>
          </mxGeometry>
        </mxCell>
        <mxCell id="wdctDN5jrHUbDZ-jReNc-11" value="" parent="1" style="edgeStyle=orthogonalEdgeStyle;shape=flexArrow;rounded=0;orthogonalLoop=1;jettySize=auto;html=1;fillColor=#1ba1e2;strokeColor=#006EAF;" edge="1">
          <mxGeometry as="geometry" relative="1">
            <mxPoint as="sourcePoint" y="523" x="546"/>
            <mxPoint as="targetPoint" y="523" x="606"/>
          </mxGeometry>
        </mxCell>
        <mxCell id="wdctDN5jrHUbDZ-jReNc-12" value="" parent="1" style="edgeStyle=orthogonalEdgeStyle;shape=flexArrow;rounded=0;orthogonalLoop=1;jettySize=auto;html=1;fillColor=#1ba1e2;strokeColor=#006EAF;" edge="1">
          <mxGeometry as="geometry" relative="1">
            <mxPoint as="sourcePoint" y="522" x="660"/>
            <mxPoint as="targetPoint" y="522" x="720"/>
          </mxGeometry>
        </mxCell>
        <mxCell id="wdctDN5jrHUbDZ-jReNc-13" value="" parent="1" style="edgeStyle=orthogonalEdgeStyle;shape=flexArrow;rounded=0;orthogonalLoop=1;jettySize=auto;html=1;fillColor=#1ba1e2;strokeColor=#006EAF;" edge="1">
          <mxGeometry as="geometry" relative="1">
            <mxPoint as="sourcePoint" y="520" x="785"/>
            <mxPoint as="targetPoint" y="520" x="845"/>
          </mxGeometry>
        </mxCell>
        <mxCell id="wdctDN5jrHUbDZ-jReNc-14" value="" parent="1" style="edgeStyle=orthogonalEdgeStyle;shape=flexArrow;rounded=0;orthogonalLoop=1;jettySize=auto;html=1;fillColor=#1ba1e2;strokeColor=#006EAF;" edge="1">
          <mxGeometry as="geometry" relative="1">
            <mxPoint as="sourcePoint" y="520" x="898"/>
            <mxPoint as="targetPoint" y="520" x="958"/>
          </mxGeometry>
        </mxCell>
        <mxCell id="wdctDN5jrHUbDZ-jReNc-15" value="" parent="1" style="edgeStyle=orthogonalEdgeStyle;shape=flexArrow;rounded=0;orthogonalLoop=1;jettySize=auto;html=1;fillColor=#1ba1e2;strokeColor=#006EAF;" edge="1">
          <mxGeometry as="geometry" relative="1">
            <mxPoint as="sourcePoint" y="520" x="1024"/>
            <mxPoint as="targetPoint" y="520" x="1084"/>
          </mxGeometry>
        </mxCell>
        <mxCell id="wdctDN5jrHUbDZ-jReNc-18" value="Release focus group data" parent="1" style="rounded=1;whiteSpace=wrap;html=1;fillColor=#aa00ff;strokeColor=#7700CC;fontColor=#ffffff;" vertex="1">
          <mxGeometry as="geometry" height="60" width="70" y="190" x="80"/>
        </mxCell>
        <mxCell id="wdctDN5jrHUbDZ-jReNc-22" value="" parent="1" style="endArrow=none;html=1;strokeColor=#CC00CC;" edge="1">
          <mxGeometry as="geometry" height="50" width="50" relative="1">
            <mxPoint as="sourcePoint" y="500" x="113"/>
            <mxPoint as="targetPoint" y="250" x="116"/>
          </mxGeometry>
        </mxCell>
        <mxCell id="wdctDN5jrHUbDZ-jReNc-23" value="Data flow pathways" parent="1" style="rounded=1;whiteSpace=wrap;html=1;fillColor=#d80073;strokeColor=#A50040;fontColor=#ffffff;" vertex="1">
          <mxGeometry as="geometry" height="50" width="69" y="340" x="118"/>
        </mxCell>
        <mxCell id="wdctDN5jrHUbDZ-jReNc-32" value="" parent="1" style="endArrow=none;html=1;strokeColor=#CC00CC;" edge="1">
          <mxGeometry as="geometry" height="50" width="50" relative="1">
            <mxPoint as="sourcePoint" y="500" x="150"/>
            <mxPoint as="targetPoint" y="390" x="152"/>
          </mxGeometry>
        </mxCell>
        <mxCell id="wdctDN5jrHUbDZ-jReNc-33" value="Development of user-journey wireframes" parent="1" style="rounded=1;whiteSpace=wrap;html=1;fillColor=#76608a;strokeColor=#432D57;fontColor=#ffffff;" vertex="1">
          <mxGeometry as="geometry" height="60" width="84" y="181" x="396"/>
        </mxCell>
        <mxCell id="wdctDN5jrHUbDZ-jReNc-34" value="" parent="1" style="endArrow=none;html=1;strokeColor=#331A00;fillColor=#d80073;" edge="1">
          <mxGeometry as="geometry" height="50" width="50" relative="1">
            <mxPoint as="sourcePoint" y="500" x="437"/>
            <mxPoint as="targetPoint" y="240" x="437"/>
          </mxGeometry>
        </mxCell>
        <mxCell id="wdctDN5jrHUbDZ-jReNc-38" value="Discover ethics conference submission" parent="1" style="rounded=1;whiteSpace=wrap;html=1;fillColor=#fa6800;strokeColor=#C73500;fontColor=#ffffff;" vertex="1">
          <mxGeometry as="geometry" height="60" width="84" y="620" x="499"/>
        </mxCell>
        <mxCell id="wdctDN5jrHUbDZ-jReNc-44" value="Ethics Approval" parent="1" style="rounded=1;whiteSpace=wrap;html=1;fillColor=#fa6800;strokeColor=#C73500;fontColor=#ffffff;" vertex="1">
          <mxGeometry as="geometry" height="60" width="84" y="620" x="841"/>
        </mxCell>
        <mxCell id="wdctDN5jrHUbDZ-jReNc-43" value="" parent="1" style="endArrow=none;html=1;strokeColor=#FF8000;exitX=0.5;exitY=0;exitDx=0;exitDy=0;" edge="1" source="wdctDN5jrHUbDZ-jReNc-38">
          <mxGeometry as="geometry" height="50" width="50" relative="1">
            <mxPoint as="sourcePoint" y="610" x="540.5"/>
            <mxPoint as="targetPoint" y="500" x="541"/>
          </mxGeometry>
        </mxCell>
        <mxCell id="wdctDN5jrHUbDZ-jReNc-51" value="" parent="1" style="edgeStyle=orthogonalEdgeStyle;rounded=0;orthogonalLoop=1;jettySize=auto;html=1;strokeColor=#3333FF;" edge="1" source="wdctDN5jrHUbDZ-jReNc-48" target="wdctDN5jrHUbDZ-jReNc-50">
          <mxGeometry as="geometry" relative="1"/>
        </mxCell>
        <mxCell id="wdctDN5jrHUbDZ-jReNc-48" value="Building the website (Start)" parent="1" style="rounded=1;whiteSpace=wrap;html=1;fillColor=#0050ef;strokeColor=#001DBC;fontColor=#ffffff;" vertex="1">
          <mxGeometry as="geometry" height="60" width="84" y="320" x="495"/>
        </mxCell>
        <mxCell id="wdctDN5jrHUbDZ-jReNc-50" value="Building the website (Complete)" parent="1" style="rounded=1;whiteSpace=wrap;html=1;fillColor=#0050ef;strokeColor=#001DBC;fontColor=#ffffff;" vertex="1">
          <mxGeometry as="geometry" height="60" width="84" y="320" x="829"/>
        </mxCell>
        <mxCell id="wdctDN5jrHUbDZ-jReNc-49" value="" parent="1" style="endArrow=none;html=1;strokeColor=#3333FF;" edge="1">
          <mxGeometry as="geometry" height="50" width="50" relative="1">
            <mxPoint as="sourcePoint" y="500" x="535"/>
            <mxPoint as="targetPoint" y="380" x="535"/>
          </mxGeometry>
        </mxCell>
        <mxCell id="wdctDN5jrHUbDZ-jReNc-53" value="" parent="1" style="endArrow=none;html=1;strokeColor=#FF8000;" edge="1">
          <mxGeometry as="geometry" height="50" width="50" relative="1">
            <mxPoint as="sourcePoint" y="620" x="882.5"/>
            <mxPoint as="targetPoint" y="500" x="883"/>
          </mxGeometry>
        </mxCell>
        <mxCell id="wdctDN5jrHUbDZ-jReNc-54" value="" parent="1" style="endArrow=none;html=1;strokeColor=#0000FF;entryX=0.5;entryY=1;entryDx=0;entryDy=0;" edge="1" target="wdctDN5jrHUbDZ-jReNc-50">
          <mxGeometry as="geometry" height="50" width="50" relative="1">
            <mxPoint as="sourcePoint" y="500" x="870.5"/>
            <mxPoint as="targetPoint" y="440" x="870.5"/>
          </mxGeometry>
        </mxCell>
      </root>
    </mxGraphModel>
  </diagram>
</mxfile>
